<svg width="29.775" height="29.0806" viewBox="0 0 29.775 29.0806" fill="none" xmlns="http://www.w3.org/2000/svg">
<g id="Group">
<path id="Vector" d="M14.8875 9.3325C22.5574 9.3325 28.775 7.46721 28.775 5.16625C28.775 2.86529 22.5574 1 14.8875 1C7.21765 1 1 2.86529 1 5.16625C1 7.46721 7.21765 9.3325 14.8875 9.3325Z" stroke="var(--stroke-0, white)" stroke-width="2" stroke-linecap="round" stroke-linejoin="round"/>
<path id="Vector_2" d="M5.70092 8.29094C2.81926 9.05475 1 10.1713 1 11.4156C1 13.7168 7.21743 15.5819 14.8875 15.5819C22.5576 15.5819 28.775 13.7168 28.775 11.4156C28.775 10.1713 26.9564 9.05475 24.0741 8.29094" stroke="var(--stroke-0, white)" stroke-width="2" stroke-linecap="round" stroke-linejoin="round"/>
<path id="Vector_3" d="M5.70092 14.5403C2.81926 15.3041 1 16.4207 1 17.665C1 19.9662 7.21743 21.8313 14.8875 21.8313C22.5576 21.8313 28.775 19.9662 28.775 17.665C28.775 16.4207 26.9564 15.3041 24.0741 14.5403" stroke="var(--stroke-0, white)" stroke-width="2" stroke-linecap="round" stroke-linejoin="round"/>
<path id="Vector_4" d="M5.70092 20.7897C2.81926 21.5535 1 22.6701 1 23.9144C1 26.2155 7.21743 28.0806 14.8875 28.0806C22.5576 28.0806 28.775 26.2155 28.775 23.9144C28.775 22.6701 26.9564 21.5535 24.0741 20.7897" stroke="var(--stroke-0, white)" stroke-width="2" stroke-linecap="round" stroke-linejoin="round"/>
</g>
</svg>
